<?xml version="1.0" standalone="no"?>
<!DOCTYPE svg PUBLIC "-//W3C//DTD SVG 20010904//EN"
 "http://www.w3.org/TR/2001/REC-SVG-20010904/DTD/svg10.dtd">
<svg version="1.0" xmlns="http://www.w3.org/2000/svg"
 width="196.000000pt" height="196.000000pt" viewBox="0 0 196.000000 196.000000"
 preserveAspectRatio="xMidYMid meet">
<metadata>
Created by potrace 1.14, written by Peter Selinger 2001-2017
</metadata>
<g transform="translate(0.000000,196.000000) scale(0.100000,-0.100000)"
fill="#000000" stroke="none">
<path d="M902 1755 c2 -52 5 -95 8 -95 24 1 33 22 27 64 -4 25 -5 46 -2 46 9
0 35 -59 35 -80 0 -11 7 -20 15 -20 12 0 15 17 15 90 0 82 -2 90 -19 90 -17 0
-19 -5 -15 -37 l5 -38 -21 38 c-11 20 -27 37 -36 37 -12 0 -14 -15 -12 -95z"/>
<path d="M1062 1825 c2 -21 4 -23 16 -11 8 8 11 19 8 25 -13 20 -26 12 -24
-14z"/>
<path d="M778 1829 c-37 -21 -14 -167 28 -183 20 -8 50 8 58 30 10 26 -13 123
-35 145 -22 22 -27 22 -51 8z m40 -51 c17 -57 22 -97 11 -103 -13 -9 -39 57
-39 100 0 44 15 45 28 3z"/>
<path d="M1138 1805 c-9 -21 -8 -32 5 -61 9 -19 17 -41 17 -50 0 -19 -30 -30
-40 -15 -5 10 -9 9 -13 -3 -8 -20 26 -39 53 -31 29 9 36 51 17 102 -14 37 -14
45 -2 49 8 3 19 3 25 -1 8 -5 11 -1 8 11 -2 12 -13 20 -31 22 -21 3 -29 -2
-39 -23z"/>
<path d="M646 1781 c-24 -27 -14 -53 35 -85 41 -28 50 -62 16 -60 -10 1 -16
-3 -14 -10 6 -17 48 -13 60 5 17 27 -1 65 -44 93 -33 22 -38 30 -29 42 7 7 17
11 22 7 6 -3 9 0 6 8 -7 22 -32 22 -52 0z"/>
<path d="M1323 1738 c-27 -30 -53 -82 -53 -107 0 -11 7 -27 16 -35 27 -27 52
-19 74 23 17 35 18 40 3 45 -9 4 -17 5 -17 4 -1 -2 -7 -15 -14 -30 -13 -30
-32 -38 -32 -13 0 24 39 95 56 102 8 3 21 0 29 -7 12 -10 15 -9 15 8 0 37 -47
43 -77 10z"/>
<path d="M522 1723 c-36 -17 -36 -15 24 -111 19 -29 34 -57 34 -62 0 -6 8 -5
19 2 19 12 19 12 0 39 -28 39 -23 47 9 16 18 -18 35 -25 45 -21 14 5 11 10
-13 31 -17 14 -30 34 -30 45 0 54 -42 84 -88 61z m53 -40 c10 -28 -11 -35 -28
-10 -9 14 -14 27 -11 30 9 9 32 -3 39 -20z"/>
<path d="M1418 1625 l-56 -73 29 -21 c35 -26 59 -18 33 10 -17 19 -17 21 4 41
16 17 24 19 35 10 11 -10 17 -9 26 2 9 11 7 15 -9 19 -19 5 -20 8 -8 26 11 19
14 19 35 5 35 -22 31 9 -4 34 l-28 19 -57 -72z"/>
<path d="M406 1639 l-26 -21 57 -66 c32 -37 58 -69 59 -70 7 -11 62 43 57 55
-5 11 -9 11 -25 -4 -19 -17 -20 -17 -38 7 -17 22 -17 27 -4 41 19 21 0 37 -21
19 -12 -10 -18 -10 -31 1 -15 12 -14 15 5 30 11 9 17 19 14 23 -10 10 -19 7
-47 -15z"/>
<path d="M1518 1546 c-53 -48 -65 -65 -56 -74 9 -9 21 -4 50 25 21 20 38 34
38 30 0 -14 -29 -63 -44 -77 -13 -10 -14 -16 -5 -26 10 -12 13 -12 23 0 6 7
36 36 67 63 43 39 53 53 46 65 -9 13 -13 12 -33 -11 -25 -28 -31 -17 -12 24
23 51 -7 44 -74 -19z"/>
<path d="M854 1546 c-120 -28 -248 -107 -325 -200 -94 -115 -134 -242 -126
-396 7 -154 59 -269 172 -381 97 -98 268 -169 405 -169 141 0 312 73 414 175
257 260 212 685 -95 889 -121 80 -304 114 -445 82z m255 -21 c105 -25 188 -72
266 -150 115 -115 165 -234 165 -395 0 -158 -50 -280 -160 -390 -217 -218
-557 -227 -783 -20 -116 107 -178 247 -180 405 -1 160 52 287 167 400 144 141
332 195 525 150z"/>
<path d="M843 1505 c-177 -48 -330 -193 -384 -364 -30 -93 -29 -233 1 -321 57
-168 177 -290 346 -351 88 -33 254 -33 347 -1 170 59 298 195 351 371 20 68
21 207 1 280 -49 184 -203 337 -391 386 -72 19 -201 18 -271 0z m131 -157 c4
-29 7 -78 9 -108 2 -51 4 -55 26 -55 22 0 27 9 54 98 24 77 34 97 49 97 25 0
23 -14 -17 -139 l-36 -110 -57 6 c-31 3 -58 6 -58 7 -1 0 -5 58 -9 129 -7 123
-6 127 13 127 17 0 21 -8 26 -52z m-103 -95 c42 -80 58 -118 50 -121 -7 -2
-28 -18 -47 -34 l-34 -30 -48 43 c-148 134 -145 130 -129 147 14 13 21 9 69
-34 113 -104 106 -100 125 -81 15 15 13 23 -33 112 -41 81 -47 97 -34 105 8 5
16 10 17 10 1 0 30 -53 64 -117z m179 57 c0 -15 -7 -20 -25 -20 -18 0 -25 5
-25 20 0 15 7 20 25 20 18 0 25 -5 25 -20z m-140 -11 c0 -25 -33 -22 -38 4 -2
12 3 17 17 17 15 0 21 -6 21 -21z m319 -66 c-106 -114 -105 -111 -86 -130 16
-16 23 -14 112 32 81 42 97 48 105 35 5 -8 10 -17 10 -20 0 -3 -53 -32 -117
-64 -76 -38 -119 -54 -121 -46 -3 7 -18 27 -34 46 l-30 34 88 95 c79 87 89 94
103 80 14 -13 11 -20 -30 -62z m-64 47 c4 -6 1 -17 -5 -26 -15 -18 -42 0 -33
22 6 16 29 19 38 4z m-362 -24 c10 -26 -34 -49 -48 -26 -8 13 13 40 30 40 7 0
15 -6 18 -14z m461 -69 c8 -13 7 -20 -4 -27 -20 -12 -45 12 -36 35 7 20 25 16
40 -8z m-558 -32 c8 -21 -3 -34 -26 -28 -16 4 -18 9 -9 24 12 23 27 25 35 4z
m13 -60 l110 -36 -6 -57 c-3 -31 -6 -57 -7 -58 0 -1 -58 -4 -128 -7 -123 -6
-128 -6 -128 13 0 24 20 29 130 32 83 3 85 4 85 27 0 22 -9 28 -87 52 -119 36
-118 36 -112 54 9 21 20 20 143 -20z m604 -25 c4 -16 0 -20 -19 -20 -13 0 -24
6 -24 13 0 32 35 37 43 7z m-653 -45 c0 -18 -5 -25 -20 -25 -15 0 -20 7 -20
25 0 18 5 25 20 25 15 0 20 -7 20 -25z m730 -14 c0 -22 -33 -29 -150 -34 -61
-2 -65 -4 -65 -25 0 -21 11 -27 95 -54 106 -34 113 -37 100 -57 -7 -12 -27 -9
-119 19 -61 19 -115 36 -120 39 -4 3 -6 32 -3 63 l4 57 77 4 c190 8 181 9 181
-12z m-70 -76 c0 -18 -5 -25 -20 -25 -15 0 -20 7 -20 25 0 18 5 25 20 25 15 0
20 -7 20 -25z m-500 -15 c0 -5 14 -25 30 -44 l31 -35 -88 -95 c-76 -82 -90
-94 -102 -81 -12 12 -4 25 59 95 68 76 72 82 56 98 -15 15 -23 13 -113 -31
-74 -38 -98 -45 -104 -35 -5 7 -9 15 -9 18 0 7 213 119 228 119 6 1 12 -3 12
-9z m-153 -16 c5 -14 -11 -33 -28 -34 -9 0 -18 37 -11 44 11 12 33 6 39 -10z
m542 -102 c78 -73 91 -89 79 -99 -12 -10 -28 0 -93 57 -43 39 -81 70 -85 70
-4 0 -13 -7 -20 -15 -10 -12 -4 -31 34 -105 46 -87 50 -110 21 -110 -19 0
-132 223 -115 228 7 3 27 17 44 33 17 16 33 28 36 28 3 0 47 -39 99 -87z
m-233 18 c33 0 34 -1 34 -38 0 -22 3 -80 6 -130 7 -88 6 -92 -13 -92 -25 0
-33 33 -33 142 l0 79 -27 -3 c-26 -3 -30 -10 -58 -101 -26 -84 -33 -97 -50
-95 -24 4 -25 -4 19 140 37 116 37 117 62 108 14 -6 41 -10 60 -10z m301 12
c10 -7 10 -12 -1 -27 -12 -16 -16 -17 -30 -6 -12 10 -14 17 -5 27 13 16 19 17
36 6z m-551 -67 c-7 -20 -25 -16 -40 8 -8 13 -7 20 4 27 20 12 45 -12 36 -35z
m464 -59 c-7 -9 -18 -16 -25 -16 -21 0 -24 23 -7 43 14 16 17 16 30 3 13 -12
13 -18 2 -30z m-372 -14 c4 -25 -19 -30 -37 -9 -8 10 -7 17 1 25 17 17 32 10
36 -16z m132 -43 c0 -14 -7 -19 -25 -19 -18 0 -25 5 -25 18 0 25 7 31 31 25
10 -3 19 -14 19 -24z m128 8 c2 -11 -3 -17 -16 -17 -20 0 -36 23 -24 34 11 12
37 1 40 -17z"/>
<path d="M290 1523 c-16 -21 -18 -29 -8 -32 13 -4 118 -89 129 -104 8 -11 49
41 49 61 0 8 -20 34 -44 58 -53 54 -93 59 -126 17z m103 -37 c35 -32 47 -56
28 -56 -11 0 -95 68 -99 81 -9 22 38 6 71 -25z"/>
<path d="M1633 1451 c-28 -21 -61 -44 -74 -52 -21 -15 -22 -16 -4 -42 9 -15
24 -27 31 -27 16 0 19 16 4 25 -16 10 -12 22 16 40 24 16 26 16 31 -4 3 -12 9
-21 14 -21 15 0 21 22 10 33 -15 15 -14 24 5 31 10 4 25 -1 34 -9 28 -25 35 0
10 35 -12 17 -22 30 -23 29 -1 0 -25 -18 -54 -38z"/>
<path d="M227 1428 c-2 -7 10 -21 27 -31 l31 -18 -41 6 c-64 10 -65 -16 -1
-50 29 -16 64 -37 79 -47 25 -17 27 -17 36 -1 8 14 2 21 -39 39 -27 13 -49 26
-49 29 0 8 70 -5 94 -17 13 -7 21 -6 27 3 5 10 -14 25 -69 56 -86 47 -89 48
-95 31z"/>
<path d="M1690 1334 c-41 -19 -81 -34 -88 -34 -9 0 -10 -5 -2 -19 9 -18 12
-19 38 -5 43 22 50 16 13 -15 -47 -38 -33 -62 15 -26 19 14 39 23 45 20 18
-11 69 16 75 40 3 13 0 34 -8 47 l-13 25 -75 -33z m68 -26 c-3 -7 -18 -14 -34
-16 -28 -2 -28 -2 -10 13 24 18 49 20 44 3z"/>
<path d="M147 1258 c-4 -12 -5 -23 -4 -24 1 -1 39 -20 84 -43 55 -27 83 -37
86 -28 2 6 -3 17 -11 23 -17 13 -6 38 13 30 11 -4 32 22 23 29 -2 1 -37 7 -78
14 -41 7 -82 15 -91 17 -11 3 -19 -3 -22 -18z m121 -33 c3 -3 2 -8 -1 -12 -4
-3 -22 1 -40 11 l-32 17 34 -6 c19 -3 37 -7 39 -10z"/>
<path d="M1707 1193 c-58 -3 -68 -7 -65 -21 2 -10 11 -16 21 -14 11 2 17 -4
17 -18 0 -11 -4 -20 -10 -20 -5 0 -10 -7 -10 -15 0 -19 -6 -20 92 18 73 28 83
35 80 55 -3 17 -9 22 -30 20 -15 -1 -58 -3 -95 -5z m49 -39 c-21 -7 -43 -11
-49 -7 -14 9 20 22 58 22 29 0 29 -1 -9 -15z"/>
<path d="M187 1094 c-9 -10 2 -24 19 -24 8 0 14 7 14 15 0 15 -21 21 -33 9z"/>
<path d="M1755 1063 l-90 -4 3 -39 c3 -26 9 -40 18 -40 8 0 13 9 11 23 -2 21
2 22 76 25 69 3 77 5 77 22 0 11 -1 19 -2 18 -2 -1 -44 -4 -93 -5z"/>
<path d="M107 983 c-12 -11 -7 -41 9 -57 22 -22 45 -20 89 10 39 26 72 25 61
-1 -3 -9 0 -15 10 -15 11 0 14 9 12 33 -3 28 -7 32 -34 35 -22 2 -40 -5 -62
-22 -40 -34 -66 -35 -60 -1 5 24 -10 34 -25 18z"/>
<path d="M1740 880 c0 -13 5 -20 13 -17 6 2 12 10 12 17 0 7 -6 15 -12 18 -8
2 -13 -5 -13 -18z"/>
<path d="M270 877 c0 -17 -8 -20 -92 -37 -45 -9 -58 -16 -58 -29 0 -17 4 -17
79 -1 77 17 80 17 83 -1 2 -12 7 -16 16 -11 9 6 10 19 4 47 -7 38 -32 62 -32
32z"/>
<path d="M1639 796 c-1 -9 -2 -20 -3 -26 -1 -5 36 -27 82 -49 45 -22 82 -39
82 -36 0 2 3 10 6 19 4 10 1 16 -10 16 -10 0 -13 6 -9 16 3 8 11 13 18 10 11
-4 31 22 23 30 -2 1 -41 8 -88 14 -46 6 -88 14 -92 16 -4 3 -9 -2 -9 -10z
m120 -41 c1 -2 1 -8 0 -13 -2 -5 -22 0 -44 10 l-40 19 40 -6 c22 -4 42 -8 44
-10z"/>
<path d="M285 759 c-16 -4 -56 -13 -88 -19 -36 -7 -57 -16 -54 -23 2 -7 12
-11 21 -11 10 1 16 -6 16 -17 0 -10 -4 -19 -9 -19 -5 0 -7 -8 -4 -19 4 -17 13
-14 87 27 66 36 82 49 78 64 -6 24 -12 26 -47 17z m-6 -33 c-2 -2 -19 -11 -38
-21 -24 -12 -32 -13 -29 -4 3 8 15 16 29 20 29 8 44 10 38 5z"/>
<path d="M1603 693 c-7 -18 -10 -15 80 -61 68 -34 79 -37 86 -23 7 13 -8 24
-76 57 -65 31 -86 37 -90 27z"/>
<path d="M330 680 c-10 -6 -11 -10 -2 -10 32 0 6 -29 -57 -62 -54 -28 -67 -38
-60 -51 8 -13 19 -10 77 24 59 35 68 37 79 24 20 -29 26 4 8 46 -19 42 -22 44
-45 29z"/>
<path d="M1556 614 c-19 -49 7 -90 77 -119 46 -19 70 -13 85 19 10 22 7 27
-24 51 -27 21 -39 24 -47 16 -9 -9 -4 -18 18 -35 17 -13 27 -27 23 -31 -11
-12 -63 13 -92 44 -25 26 -26 30 -12 44 14 14 14 16 0 21 -21 8 -21 8 -28 -10z"/>
<path d="M369 548 c-24 -21 -56 -46 -71 -56 -34 -20 -34 -20 -3 -55 27 -31 52
-29 33 3 -9 14 -9 22 1 34 17 20 40 21 47 1 5 -12 9 -13 20 -4 12 10 12 14 -2
30 -14 16 -14 18 5 28 16 9 22 7 34 -9 13 -18 15 -19 21 -4 4 9 -3 27 -17 43
l-23 28 -45 -39z"/>
<path d="M1472 505 l-30 -25 69 -66 c57 -56 71 -65 83 -54 13 10 11 15 -15 37
-35 30 -31 43 5 19 28 -18 56 -21 56 -7 0 5 -16 18 -35 30 -19 11 -35 27 -35
35 0 14 -45 56 -61 56 -4 0 -21 -11 -37 -25z m58 -30 c7 -9 10 -18 7 -21 -7
-8 -47 14 -47 26 0 15 26 12 40 -5z"/>
<path d="M457 472 c-10 -10 -17 -32 -17 -48 0 -17 -6 -39 -14 -49 -14 -19 -15
-19 -34 -2 -16 15 -20 16 -25 3 -3 -8 3 -22 13 -31 40 -36 90 6 90 75 0 35 19
49 35 27 9 -12 15 -13 23 -5 9 9 8 16 -5 30 -21 23 -45 23 -66 0z"/>
<path d="M1377 433 c-11 -10 -8 -52 4 -76 20 -40 72 -87 96 -87 55 0 47 72
-15 138 -28 30 -69 42 -85 25z m80 -71 c36 -48 40 -62 19 -62 -15 0 -53 45
-76 88 -21 42 20 22 57 -26z"/>
<path d="M513 355 c-51 -75 -51 -75 -30 -90 47 -33 97 -11 97 42 0 10 9 24 20
31 28 17 25 56 -5 76 -13 9 -26 16 -28 16 -2 0 -26 -34 -54 -75z m75 18 c-2
-10 -11 -19 -21 -21 -16 -3 -17 -1 -5 17 16 25 31 27 26 4z m-38 -62 c0 -20
-27 -48 -37 -37 -8 7 17 56 29 56 4 0 8 -8 8 -19z"/>
<path d="M1285 368 c-11 -6 -21 -12 -23 -13 -2 -2 64 -145 76 -164 1 -3 18 3
37 12 25 12 33 21 28 32 -4 12 -9 13 -16 6 -18 -18 -33 -13 -45 14 -16 34 -15
35 8 35 13 0 18 5 14 15 -4 10 -13 13 -26 9 -13 -4 -24 -1 -29 7 -13 21 -11
27 11 34 11 4 18 11 15 16 -8 12 -25 11 -50 -3z"/>
<path d="M657 342 c-23 -26 -47 -87 -47 -121 0 -37 30 -57 59 -42 46 25 81
161 45 175 -26 10 -40 7 -57 -12z m43 -32 c0 -23 -34 -95 -50 -105 -17 -10
-11 37 10 83 20 45 40 55 40 22z"/>
<path d="M1180 327 c-34 -17 -39 -80 -11 -135 22 -43 44 -54 80 -40 21 7 22
12 16 46 -4 20 -8 42 -8 48 0 13 -37 6 -37 -7 0 -4 4 -19 10 -33 5 -15 6 -28
0 -31 -16 -10 -43 45 -44 88 -1 34 2 42 17 41 18 -2 21 4 9 23 -6 9 -13 9 -32
0z"/>
<path d="M772 303 c-1 -14 -9 -51 -17 -83 -19 -72 -19 -80 0 -80 9 0 18 12 22
30 9 46 23 47 23 2 0 -26 5 -42 15 -46 12 -4 15 3 15 37 0 23 7 51 15 61 31
42 15 84 -36 95 -32 7 -35 6 -37 -16z m54 -28 c7 -17 -14 -48 -26 -40 -10 6 0
55 11 55 6 0 12 -7 15 -15z"/>
<path d="M902 275 c-15 -32 -16 -120 -2 -146 6 -11 21 -19 36 -19 43 0 69 98
44 164 -13 36 -62 36 -78 1z m53 -16 c11 -32 -5 -119 -21 -119 -10 0 -14 13
-14 48 0 80 20 120 35 71z"/>
<path d="M1035 131 c-3 -5 -1 -12 5 -16 6 -4 7 -11 4 -17 -4 -7 -2 -8 4 -4 14
9 16 46 3 46 -6 0 -12 -4 -16 -9z"/>
</g>
</svg>
